<svg xmlns="http://www.w3.org/2000/svg" viewBox="0 0 32 32"><title>65-Calendar - Time</title><g id="_65-Calendar_-_Time" data-name="65-Calendar - Time"><rect x="4" y="4" width="2" height="2"/><rect x="26" y="4" width="2" height="2"/><path d="M29,0H3A3,3,0,0,0,0,3V29a3,3,0,0,0,3,3H26a1,1,0,0,0,.71-.29l5-5A1,1,0,0,0,32,26V3A3,3,0,0,0,29,0Zm1,25H27a2,2,0,0,0-2,2v3H3a1,1,0,0,1-1-1V10H30ZM10,8V6H22V8ZM30,8H24V5a1,1,0,0,0-1-1H9A1,1,0,0,0,8,5V8H2V3A1,1,0,0,1,3,2H29a1,1,0,0,1,1,1Z"/><path d="M16,28a8,8,0,1,0-8-8A8,8,0,0,0,16,28Zm0-14a6,6,0,1,1-6,6A6,6,0,0,1,16,14Z"/><path d="M17.29,22.71l1.41-1.41L17,19.59V17H15v3a1,1,0,0,0,.29.71Z"/></g></svg>