<svg xmlns="http://www.w3.org/2000/svg" xmlns:xlink="http://www.w3.org/1999/xlink" viewBox="0 0 64 64"><defs><style>.cls-1{fill:url(#linear-gradient);}.cls-2{fill:url(#linear-gradient-2);}.cls-3{fill:url(#linear-gradient-3);}.cls-4{fill:#fe9661;}.cls-5{fill:url(#linear-gradient-4);}.cls-6{fill:#4795ea;}</style><linearGradient id="linear-gradient" x1="7" y1="15" x2="57" y2="15" gradientUnits="userSpaceOnUse"><stop offset="0" stop-color="#54a5ff"/><stop offset="1" stop-color="#8ad3fe"/></linearGradient><linearGradient id="linear-gradient-2" x1="32" y1="56" x2="32" y2="20" gradientUnits="userSpaceOnUse"><stop offset="0" stop-color="#d3e6f5"/><stop offset="1" stop-color="#f0f7fc"/></linearGradient><linearGradient id="linear-gradient-3" x1="32" y1="36.6" x2="32" y2="47" gradientUnits="userSpaceOnUse"><stop offset="0" stop-color="#fe9661"/><stop offset="1" stop-color="#ffb369"/></linearGradient><linearGradient id="linear-gradient-4" y1="30" y2="39" xlink:href="#linear-gradient-3"/></defs><title>Calendar</title><g id="Calendar"><rect class="cls-1" x="7" y="10" width="50" height="10" rx="2" ry="2"/><path class="cls-2" d="M9,20H55a0,0,0,0,1,0,0V54a2,2,0,0,1-2,2H11a2,2,0,0,1-2-2V20A0,0,0,0,1,9,20Z"/><polygon class="cls-3" points="41 36.6 41 44 32 47 23 44 23 36.6 32 39 41 36.6"/><path class="cls-4" d="M44,45V34a1,1,0,0,1,2,0V45A1,1,0,0,1,44,45Z"/><path class="cls-5" d="M46.07,35.25,32,39,17.93,35.25A1.26,1.26,0,0,1,18,32.8L32,30l14,2.8A1.26,1.26,0,0,1,46.07,35.25Z"/><path class="cls-6" d="M23,13V7a1,1,0,0,1,2,0v6A1,1,0,0,1,23,13Z"/><path class="cls-6" d="M15,13V7a1,1,0,0,1,2,0v6A1,1,0,0,1,15,13Z"/><path class="cls-6" d="M31,13V7a1,1,0,0,1,2,0v6A1,1,0,0,1,31,13Z"/><path class="cls-6" d="M39,13V7a1,1,0,0,1,2,0v6A1,1,0,0,1,39,13Z"/><path class="cls-6" d="M47,13V7a1,1,0,0,1,2,0v6A1,1,0,0,1,47,13Z"/></g></svg>