<svg xmlns="http://www.w3.org/2000/svg" viewBox="0 0 32 32"><title>tool android app aplication phone</title><g id="tool_android_app_aplication_phone" data-name="tool android app aplication phone"><path d="M30.56,8.47a8,8,0,0,0-7-7,64.29,64.29,0,0,0-15.06,0,8,8,0,0,0-7,7,64.29,64.29,0,0,0,0,15.06,8,8,0,0,0,7,7,64.29,64.29,0,0,0,15.06,0,8,8,0,0,0,7-7A64.29,64.29,0,0,0,30.56,8.47Zm-2,14.83a6,6,0,0,1-5.28,5.28,63.65,63.65,0,0,1-14.6,0A6,6,0,0,1,3.42,23.3a63.65,63.65,0,0,1,0-14.6A6,6,0,0,1,8.7,3.42a63.65,63.65,0,0,1,14.6,0A6,6,0,0,1,28.58,8.7,63.65,63.65,0,0,1,28.58,23.3Z"/><path d="M13,6H9A2,2,0,0,0,7,8V22a1,1,0,0,0,.29.71l3,3a1,1,0,0,0,1.42,0l3-3A1,1,0,0,0,15,22V8A2,2,0,0,0,13,6Zm0,2v2H9V8ZM11,23.59l-2-2V12h4v9.59Z"/><path d="M23,6H19a2,2,0,0,0-2,2V24a2,2,0,0,0,2,2h4a2,2,0,0,0,2-2V8A2,2,0,0,0,23,6ZM19,24V8h4v2H22a1,1,0,0,0,0,2h1v3H22a1,1,0,0,0,0,2h1v3H22a1,1,0,0,0,0,2h1v2Z"/></g></svg>