<svg xmlns="http://www.w3.org/2000/svg" viewBox="0 0 32 32"><defs><style>.cls-1{fill:#231f20;}</style></defs><g id="wallet"><path className="cls-1" d="M26,10H25V9.16a4.46,4.46,0,0,0-4-4.24V4a1,1,0,0,0-1-1H7A1,1,0,0,0,6,4v.92A4.8,4.8,0,0,0,3.31,6.19,4.06,4.06,0,0,0,2,9a.36.36,0,0,0,0,.11V26.16A2.89,2.89,0,0,0,4.94,29H22.06A2.89,2.89,0,0,0,25,26.16V24h.75A4.13,4.13,0,0,0,30,20V13.77A3.89,3.89,0,0,0,26,10Zm0,2a1.9,1.9,0,0,1,2,1.77v.76a6.64,6.64,0,0,1-3,1.36v-1.5a1.9,1.9,0,0,0,0-.25A.7.7,0,0,0,25,14V12ZM23,22H20.33a2.14,2.14,0,0,1-2.25-2,2.14,2.14,0,0,1,2.25-2H23ZM23,9.16v1.67a5,5,0,0,0-2-.76S21,10,21,10V7A2.42,2.42,0,0,1,23,9.16ZM19,5v5H8V5ZM6,7V9.66a6.44,6.44,0,0,1-1.93-1,2.27,2.27,0,0,1,.62-1A2.89,2.89,0,0,1,6,7ZM23,26.16a.89.89,0,0,1-.94.84H4.94A.89.89,0,0,1,4,26.16V11a8.68,8.68,0,0,0,4.07,1H20.23A2.6,2.6,0,0,1,23,14.39V16H20.33a4.13,4.13,0,0,0-4.25,4,4.13,4.13,0,0,0,4.25,4H23ZM28,20a2.14,2.14,0,0,1-2.25,2H25V17.91a8.67,8.67,0,0,0,3-1Z"/></g></svg>