<svg xmlns="http://www.w3.org/2000/svg" viewBox="0 0 32 32"><title>63-Calendar</title><g id="_63-Calendar" data-name="63-Calendar"><rect x="4" y="4" width="2" height="2"/><rect x="26" y="4" width="2" height="2"/><path d="M29,0H3A3,3,0,0,0,0,3V29a3,3,0,0,0,3,3H26a1,1,0,0,0,.71-.29l5-5A1,1,0,0,0,32,26V3A3,3,0,0,0,29,0Zm1,25H27a2,2,0,0,0-2,2v3H3a1,1,0,0,1-1-1V10H30ZM10,8V6H22V8ZM30,8H24V5a1,1,0,0,0-1-1H9A1,1,0,0,0,8,5V8H2V3A1,1,0,0,1,3,2H29a1,1,0,0,1,1,1Z"/><path d="M21,16.87V24h2V15a1,1,0,0,0-1.55-.83l-3,2,1.11,1.66Z"/><path d="M11,24h3a2,2,0,0,0,2-2V16a2,2,0,0,0-2-2H11a2,2,0,0,0-2,2v1h2V16h3v2H11v2h3v2H11V21H9v1A2,2,0,0,0,11,24Z"/></g></svg>