<?xml version="1.0" encoding="UTF-8"?>
<!DOCTYPE svg PUBLIC "-//W3C//DTD SVG 1.1//EN" "http://www.w3.org/Graphics/SVG/1.1/DTD/svg11.dtd">
<!-- Creator: CorelDRAW -->
<svg xmlns="http://www.w3.org/2000/svg" xml:space="preserve" width="6.82666in" height="6.82666in" style="shape-rendering:geometricPrecision; text-rendering:geometricPrecision; image-rendering:optimizeQuality; fill-rule:evenodd; clip-rule:evenodd"
viewBox="0 0 6.82666 6.82666"
 xmlns:xlink="http://www.w3.org/1999/xlink">
 <defs>
  <style type="text/css">
   <![CDATA[
    .fil2 {fill:none}
    .fil5 {fill:#212121}
    .fil13 {fill:#272727}
    .fil8 {fill:#293439}
    .fil15 {fill:#43A047}
    .fil9 {fill:#757575}
    .fil1 {fill:#D32F2F}
    .fil3 {fill:#DBC0B2}
    .fil7 {fill:#DFC4B6}
    .fil10 {fill:#E4B7A0}
    .fil6 {fill:#ECCEBE}
    .fil11 {fill:#EEEEEE}
    .fil0 {fill:#EF5350}
    .fil4 {fill:#FFDDCC}
    .fil14 {fill:#272727;fill-rule:nonzero}
    .fil12 {fill:#3B210F;fill-rule:nonzero}
   ]]>
  </style>
   <clipPath id="id0">
    <path d="M3.41333 0c1.88513,0 3.41333,1.5282 3.41333,3.41333 0,1.88513 -1.5282,3.41333 -3.41333,3.41333 -1.88513,0 -3.41333,-1.5282 -3.41333,-3.41333 0,-1.88513 1.5282,-3.41333 3.41333,-3.41333z"/>
   </clipPath>
 </defs>
 <g id="Layer_x0020_1">
  <metadata id="CorelCorpID_0Corel-Layer"/>
  <path class="fil0" d="M3.41333 0c1.88513,0 3.41333,1.5282 3.41333,3.41333 0,1.88513 -1.5282,3.41333 -3.41333,3.41333 -1.88513,0 -3.41333,-1.5282 -3.41333,-3.41333 0,-1.88513 1.5282,-3.41333 3.41333,-3.41333z"/>
  <g style="clip-path:url(#id0)">
   <g id="_435556480">
    <g>
     <path id="_4318598241" class="fil1" d="M6.34646 5.84853l0 0zm-3.78627 -3.78627l0 0z"/>
     <polygon id="_431859776" class="fil1" points="4.36974,1.75504 8.156,5.54131 7.81328,5.61646 4.02702,1.83019 "/>
     <polygon id="_433401928" class="fil1" points="4.02702,1.83019 7.81328,5.61646 7.81328,5.87028 4.02702,2.084 "/>
     <polygon id="_433401856" class="fil1" points="4.02702,2.084 7.81328,5.87028 7.81272,5.87047 7.81215,5.87066 7.81159,5.87085 7.81102,5.87104 7.81046,5.87123 7.80989,5.87143 7.80933,5.87161 7.80876,5.87181 4.02249,2.08554 4.02306,2.08534 4.02362,2.08515 4.02419,2.08496 4.02476,2.08477 4.02532,2.08458 4.02589,2.08439 4.02645,2.0842 "/>
     <polygon id="_433401952" class="fil1" points="4.02249,2.08554 7.80876,5.87181 7.81953,5.88741 7.8296,5.90379 7.83898,5.9209 7.8477,5.93871 7.85578,5.95716 7.86322,5.97622 7.87005,5.99585 7.87629,6.01599 7.88195,6.03661 7.88706,6.05767 7.89163,6.07913 7.89568,6.10093 7.89923,6.12304 7.9023,6.14542 7.9049,6.16802 7.90706,6.1908 7.90878,6.21371 7.9101,6.23672 7.91103,6.25979 7.91158,6.28286 7.91178,6.3059 7.91165,6.32887 7.91119,6.35171 7.91043,6.3744 7.90939,6.39688 7.90809,6.41912 7.90655,6.44107 7.90478,6.46269 7.9028,6.48393 7.90062,6.50476 7.89828,6.52513 7.89578,6.54499 4.10952,2.75872 4.11201,2.73885 4.11435,2.71848 4.11653,2.69766 4.11851,2.67641 4.12028,2.6548 4.12183,2.63285 4.12313,2.61061 4.12417,2.58813 4.12492,2.56544 4.12538,2.54259 4.12551,2.51963 4.12531,2.49659 4.12476,2.47352 4.12383,2.45045 4.12252,2.42744 4.12079,2.40452 4.11863,2.38174 4.11603,2.35915 4.11296,2.33677 4.10941,2.31466 4.10536,2.29285 4.10079,2.2714 4.09569,2.25034 4.09002,2.22972 4.08378,2.20957 4.07695,2.18995 4.06951,2.17089 4.06144,2.15244 4.05272,2.13463 4.04333,2.11752 4.03326,2.10114 "/>
     <polygon id="_433401472" class="fil1" points="4.20494,2.76013 7.9912,6.5464 7.99477,6.55043 7.99811,6.5548 8.00124,6.55947 8.00414,6.56445 8.00682,6.56972 8.00926,6.57526 8.01148,6.58107 8.01346,6.58713 8.01521,6.59343 8.01672,6.59995 8.01799,6.6067 8.01901,6.61364 8.01979,6.62078 8.02031,6.62809 8.02059,6.63557 8.02061,6.64321 8.02038,6.65098 8.01989,6.65889 8.01913,6.66691 8.01811,6.67504 8.01682,6.68326 8.01526,6.69156 8.01344,6.69993 8.01133,6.70835 8.00895,6.71681 8.00629,6.72531 4.22002,2.93904 4.22269,2.93054 4.22506,2.92207 4.22717,2.91365 4.229,2.90529 4.23056,2.89699 4.23184,2.88877 4.23286,2.88064 4.23362,2.87262 4.23411,2.86471 4.23435,2.85694 4.23432,2.8493 4.23405,2.84182 4.23352,2.83451 4.23274,2.82737 4.23172,2.82043 4.23045,2.81368 4.22894,2.80716 4.2272,2.80085 4.22521,2.7948 4.223,2.78899 4.22055,2.78344 4.21787,2.77818 4.21497,2.7732 4.21185,2.76852 4.2085,2.76416 "/>
     <polygon id="_433402336" class="fil1" points="2.84387,1.8372 6.63014,5.62347 6.43302,5.58025 2.64675,1.79398 "/>
     <polygon id="_433402264" class="fil1" points="4.07088,3.07206 7.85715,6.85833 7.85493,6.85754 7.85274,6.85668 7.8506,6.85573 7.8485,6.8547 7.84645,6.85358 7.84444,6.85239 7.84246,6.85112 7.84054,6.84977 4.05427,3.0635 4.0562,3.06485 4.05817,3.06612 4.06018,3.06731 4.06224,3.06843 4.06433,3.06946 4.06648,3.07041 4.06866,3.07127 "/>
     <polygon id="_433402288" class="fil1" points="2.58931,1.78138 6.37558,5.56765 6.25546,5.54131 2.46919,1.75504 "/>
     <polygon id="_433402624" class="fil1" points="2.5602,2.06226 6.34646,5.84853 6.34679,5.85226 6.34711,5.85601 6.34743,5.85977 6.34775,5.86354 6.34807,5.86733 6.34839,5.87113 6.3487,5.87495 6.34902,5.87878 6.34932,5.88263 6.34963,5.8865 6.34992,5.89037 6.35021,5.89427 6.3505,5.89819 6.35077,5.90211 6.35104,5.90606 6.3513,5.91002 2.56503,2.12375 2.56477,2.11979 2.5645,2.11584 2.56423,2.11191 2.56394,2.108 2.56365,2.1041 2.56336,2.10022 2.56306,2.09636 2.56275,2.09251 2.56244,2.08868 2.56212,2.08486 2.5618,2.08106 2.56148,2.07727 2.56116,2.0735 2.56084,2.06974 2.56052,2.06599 "/>
     <polygon id="_433402360" class="fil1" points="2.50829,2.24695 6.29456,6.03322 6.25975,6.08731 2.47348,2.30104 "/>
     <polygon id="_433402456" class="fil1" points="3.71126,3.62643 7.49752,7.4127 7.49755,7.50323 3.71128,3.71696 "/>
     <polygon id="_433401424" class="fil1" points="2.54735,2.24695 6.33362,6.03322 6.31727,6.08731 2.531,2.30104 "/>
     <polygon id="_433400968" class="fil1" points="2.58513,2.24652 6.37139,6.03279 6.36217,6.08731 2.5759,2.30104 "/>
     <polygon id="_433401232" class="fil1" points="2.56535,2.12375 6.35162,5.91002 6.42205,6.08731 2.63578,2.30104 "/>
     <polygon id="_433401400" class="fil1" points="2.5759,2.30104 6.36217,6.08731 6.34704,6.08731 2.56077,2.30104 "/>
     <polygon id="_433400704" class="fil1" points="2.63578,2.30104 6.42205,6.08731 6.40401,6.08731 2.61774,2.30104 "/>
     <polygon id="_433400896" class="fil1" points="3.11539,3.50431 6.90165,7.29058 6.89009,7.28237 6.8786,7.27406 6.86718,7.26567 6.85584,7.25719 6.84461,7.24865 6.83349,7.24007 6.82249,7.23144 6.81163,7.22279 6.80092,7.21413 6.79037,7.20546 6.77999,7.19681 6.7698,7.18819 6.75981,7.1796 6.75004,7.17107 6.74048,7.16259 6.73117,7.1542 6.7221,7.14589 6.7133,7.13769 6.70477,7.1296 6.69653,7.12163 2.91026,3.33536 2.9185,3.34333 2.92703,3.35142 2.93583,3.35962 2.9449,3.36793 2.95422,3.37632 2.96377,3.3848 2.97355,3.39333 2.98354,3.40192 2.99372,3.41054 3.0041,3.41919 3.01465,3.42785 3.02536,3.43652 3.03622,3.44517 3.04722,3.4538 3.05834,3.46238 3.06957,3.47092 3.08091,3.47939 3.09233,3.48779 3.10383,3.4961 "/>
     <polygon id="_433400680" class="fil1" points="3.83667,5.07122 7.62294,8.85749 7.61754,8.86671 7.61173,8.87598 7.60549,8.88528 7.59881,8.89459 7.5917,8.90388 7.58414,8.91314 7.57613,8.92233 7.56765,8.93144 7.5587,8.94044 7.54928,8.94932 7.53937,8.95805 7.52898,8.9666 7.51808,8.97496 7.50668,8.98309 7.49476,8.99099 7.48233,8.99862 7.46936,9.00596 7.45586,9.013 7.44182,9.0197 7.42723,9.02604 7.41208,9.03201 7.39637,9.03758 7.38008,9.04272 7.36321,9.04743 7.34576,9.05166 7.32772,9.0554 7.30907,9.05863 7.28981,9.06132 7.26994,9.06345 7.24944,9.065 7.22832,9.06595 7.20656,9.06627 3.42029,5.28 3.44205,5.27968 3.46318,5.27873 3.48367,5.27718 3.50354,5.27505 3.5228,5.27235 3.54145,5.26913 3.55949,5.26539 3.57694,5.26115 3.59381,5.25645 3.6101,5.25131 3.62581,5.24574 3.64096,5.23977 3.65555,5.23343 3.66959,5.22672 3.68309,5.21969 3.69606,5.21235 3.7085,5.20472 3.72041,5.19682 3.73181,5.18869 3.74271,5.18033 3.75311,5.17178 3.76301,5.16305 3.77244,5.15417 3.78138,5.14517 3.78986,5.13606 3.79787,5.12687 3.80543,5.11761 3.81255,5.10831 3.81922,5.09901 3.82546,5.08971 3.83128,5.08044 "/>
     <polygon id="_433400800" class="fil1" points="3.42029,5.28 7.20656,9.06627 7.20567,9.06625 7.2048,9.0662 7.20393,9.06612 7.20307,9.06602 7.20222,9.06592 7.20136,9.06581 7.2005,9.06571 7.19963,9.06562 3.41337,5.27935 3.41423,5.27944 3.41509,5.27954 3.41595,5.27965 3.41681,5.27975 3.41767,5.27985 3.41853,5.27993 3.4194,5.27998 "/>
     <polygon id="_433400824" class="fil1" points="3.41337,5.27935 7.19963,9.06562 7.19877,9.06571 7.19791,9.06581 7.19706,9.06592 7.1962,9.06602 7.19535,9.06612 7.19449,9.0662 7.19362,9.06625 7.19274,9.06627 3.40647,5.28 3.40735,5.27998 3.40822,5.27993 3.40908,5.27985 3.40994,5.27975 3.41079,5.27965 3.41164,5.27954 3.4125,5.27944 "/>
     <polygon id="_433400872" class="fil1" points="2.99007,5.07122 6.77634,8.85749 5.55776,8.9487 1.7715,5.16243 "/>
     <polygon id="_430492488" class="fil1" points="3.40647,5.28 7.19274,9.06627 7.17098,9.06595 7.14985,9.065 7.12936,9.06345 7.10949,9.06132 7.09023,9.05863 7.07159,9.0554 7.05354,9.05166 7.03609,9.04743 7.01922,9.04272 7.00294,9.03758 6.98722,9.03201 6.97207,9.02604 6.95748,9.0197 6.94344,9.013 6.92994,9.00596 6.91697,8.99862 6.90454,8.99099 6.89262,8.98309 6.88121,8.97496 6.87031,8.9666 6.85992,8.95805 6.85001,8.94932 3.06374,5.16305 3.07365,5.17178 3.08405,5.18033 3.09494,5.18869 3.10635,5.19682 3.11827,5.20472 3.1307,5.21235 3.14367,5.21969 3.15717,5.22672 3.17121,5.23343 3.1858,5.23977 3.20095,5.24574 3.21667,5.25131 3.23296,5.25645 3.24982,5.26115 3.26727,5.26539 3.28532,5.26913 3.30396,5.27235 3.32322,5.27505 3.34309,5.27718 3.36358,5.27873 3.38471,5.27968 "/>
     <polygon id="_430492416" class="fil1" points="1.7715,5.16243 5.55776,8.9487 5.54763,8.94893 5.5377,8.94815 5.52806,8.94642 5.51872,8.94377 5.50978,8.94026 5.50125,8.93592 5.49321,8.93081 5.48571,8.92496 1.69944,5.13869 1.70694,5.14454 1.71498,5.14965 1.72351,5.15398 1.73246,5.1575 1.74179,5.16015 1.75144,5.16188 1.76136,5.16266 "/>
     <polygon id="_430492176" class="fil1" points="2.77194,3.06181 6.5582,6.84809 6.55605,6.84974 6.55383,6.85128 6.55156,6.85273 6.54924,6.85407 6.54685,6.8553 6.54441,6.85643 6.54192,6.85745 6.53937,6.85835 2.7531,3.07208 2.75565,3.07118 2.75815,3.07016 2.76059,3.06903 2.76297,3.0678 2.7653,3.06646 2.76757,3.06501 2.76978,3.06346 "/>
     <polygon id="_430492032" class="fil1" points="2.7531,3.07208 6.53937,6.85835 6.53441,6.85975 6.52937,6.8607 6.52428,6.86122 6.51912,6.86132 6.51392,6.861 6.50869,6.86027 6.50342,6.85914 6.49814,6.85762 6.49285,6.85571 6.48756,6.85343 6.48227,6.85078 6.47701,6.84778 6.47178,6.84443 6.46658,6.84073 6.46143,6.8367 6.45634,6.83235 6.45131,6.82767 2.66505,3.0414 2.67007,3.04607 2.67517,3.05043 2.68031,3.05446 2.68551,3.05815 2.69074,3.06151 2.696,3.06451 2.70129,3.06716 2.70658,3.06944 2.71187,3.07135 2.71715,3.07287 2.72242,3.074 2.72765,3.07472 2.73285,3.07505 2.73801,3.07495 2.74311,3.07443 2.74814,3.07348 "/>
     <polygon id="_430491864" class="fil1" points="5.05519,5.16243 8.84146,8.9487 7.62294,8.85749 3.83667,5.07122 "/>
     <polygon id="_430492320" class="fil1" points="2.64675,1.79398 6.43302,5.58025 6.42346,5.58501 6.41456,5.59006 6.40628,5.59537 6.3986,5.60096 6.39152,5.60682 6.38499,5.61294 6.37901,5.61932 6.37355,5.62595 6.3686,5.63283 6.36413,5.63995 6.36012,5.64731 6.35655,5.6549 6.35341,5.66272 6.35066,5.67076 6.3483,5.67903 6.34629,5.68751 6.34463,5.6962 6.34328,5.70509 6.34224,5.71419 6.34146,5.72348 6.34095,5.73296 6.34068,5.74263 6.34062,5.75248 6.34076,5.76251 6.34107,5.77271 6.34154,5.78307 6.34215,5.79361 6.34286,5.8043 6.34367,5.81513 6.34456,5.82613 6.3455,5.83726 6.34646,5.84853 2.5602,2.06226 2.55923,2.05099 2.55829,2.03985 2.55741,2.02886 2.55659,2.01802 2.55588,2.00733 2.55527,1.9968 2.5548,1.98644 2.55449,1.97624 2.55435,1.96621 2.55441,1.95636 2.55469,1.94669 2.5552,1.93721 2.55597,1.92792 2.55702,1.91882 2.55836,1.90993 2.56002,1.90124 2.56203,1.89276 2.56439,1.88449 2.56714,1.87645 2.57028,1.86863 2.57385,1.86104 2.57786,1.85368 2.58233,1.84656 2.58728,1.83968 2.59274,1.83305 2.59872,1.82667 2.60525,1.82055 2.61233,1.81469 2.62001,1.8091 2.62829,1.80378 2.6372,1.79874 "/>
     <polygon id="_430492536" class="fil1" points="4.22002,2.93904 8.00629,6.72531 8.00338,6.73372 8.00027,6.74195 7.99696,6.74998 7.99346,6.75779 7.98978,6.76539 7.98593,6.77277 7.98192,6.77991 7.97776,6.78681 7.97346,6.79347 7.96903,6.79986 7.96448,6.80599 7.95981,6.81185 7.95504,6.81741 7.95018,6.82269 7.94522,6.82767 7.9402,6.83234 7.93511,6.8367 7.92996,6.84072 7.92476,6.84442 7.91953,6.84777 7.91426,6.85078 7.90898,6.85342 7.90369,6.8557 7.89839,6.85761 7.89311,6.85913 7.88784,6.86025 7.88261,6.86098 7.8774,6.8613 7.87225,6.8612 7.86715,6.86068 7.86211,6.85972 7.85715,6.85833 4.07088,3.07206 4.07584,3.07345 4.08088,3.07441 4.08598,3.07493 4.09113,3.07503 4.09634,3.07471 4.10157,3.07398 4.10684,3.07285 4.11213,3.07133 4.11742,3.06943 4.12271,3.06715 4.128,3.0645 4.13326,3.0615 4.13849,3.05815 4.14369,3.05445 4.14884,3.05043 4.15393,3.04607 4.15896,3.0414 4.16391,3.03642 4.16877,3.03114 4.17354,3.02557 4.17821,3.01972 4.18276,3.01359 4.1872,3.0072 4.1915,3.00054 4.19565,2.99364 4.19966,2.9865 4.20351,2.97912 4.20719,2.97152 4.21069,2.9637 4.214,2.95568 4.21711,2.94745 "/>
     <polygon id="_430492080" class="fil1" points="2.84479,2.08438 6.63106,5.87065 6.63094,5.87061 6.63083,5.87056 6.63071,5.87051 6.63059,5.87046 6.63048,5.87042 6.63037,5.87037 6.63025,5.87032 6.63014,5.87028 2.84387,2.084 2.84398,2.08405 2.8441,2.0841 2.84421,2.08415 2.84433,2.08419 2.84444,2.08424 2.84456,2.08429 2.84467,2.08433 "/>
     <polygon id="_430491840" class="fil1" points="2.531,2.30104 6.31727,6.08731 6.29959,6.08731 2.51332,2.30104 "/>
     <polygon id="_430492104" class="fil1" points="3.98834,3.25433 7.77461,7.0406 7.77078,7.04605 7.76652,7.05178 7.76183,7.05778 7.75674,7.06402 7.75124,7.07052 7.74536,7.07723 7.7391,7.08417 7.73248,7.0913 7.72551,7.09863 7.7182,7.10614 7.71057,7.11381 7.70263,7.12163 7.69439,7.12959 7.68586,7.13769 7.67706,7.14589 7.66799,7.1542 7.65868,7.16259 7.64913,7.17106 7.63935,7.1796 7.62936,7.18819 7.61917,7.19681 7.6088,7.20546 7.59825,7.21412 7.58754,7.22278 7.57668,7.23144 7.56569,7.24006 7.55456,7.24865 7.54333,7.25719 7.532,7.26566 7.52057,7.27406 7.50908,7.28237 7.49752,7.29057 3.71126,3.5043 3.72281,3.49609 3.73431,3.48779 3.74573,3.47939 3.75706,3.47091 3.7683,3.46238 3.77942,3.45379 3.79041,3.44517 3.80127,3.43651 3.81198,3.42785 3.82253,3.41919 3.83291,3.41054 3.84309,3.40191 3.85308,3.39333 3.86286,3.38479 3.87241,3.37632 3.88172,3.36793 3.89079,3.35962 3.89959,3.35141 3.90812,3.34332 3.91636,3.33536 3.9243,3.32754 3.93194,3.31987 3.93924,3.31236 3.94621,3.30503 3.95283,3.29789 3.95909,3.29096 3.96497,3.28424 3.97047,3.27775 3.97557,3.2715 3.98025,3.26551 3.98452,3.25978 "/>
     <polygon id="_430492560" class="fil1" points="2.47348,2.30104 6.25975,6.08731 6.24774,6.08731 2.46147,2.30104 "/>
     <polygon id="_430492728" class="fil1" points="3.71126,3.5043 7.49752,7.29057 7.49752,7.4127 3.71126,3.62643 "/>
     <polygon id="_430492608" class="fil1" points="4.56904,4.19141 8.3553,7.97769 8.36286,7.98586 8.37026,7.99486 8.37751,8.00466 8.38462,8.01523 8.39159,8.02656 8.39842,8.0386 8.40511,8.05135 8.41168,8.06478 8.41813,8.07885 8.42445,8.09356 8.43065,8.10887 8.43674,8.12476 8.44273,8.1412 8.44861,8.15817 8.45439,8.17566 8.46007,8.19362 8.46566,8.21204 8.47116,8.23089 8.47657,8.25015 8.48191,8.2698 8.48717,8.28981 8.49236,8.31015 8.49748,8.3308 8.50253,8.35174 8.50753,8.37295 8.51246,8.39439 8.51735,8.41604 8.52219,8.43789 8.52698,8.4599 8.53174,8.48205 8.53646,8.50432 4.75019,4.71805 4.74547,4.69578 4.74072,4.67363 4.73592,4.65162 4.73108,4.62977 4.7262,4.60812 4.72126,4.58668 4.71626,4.56547 4.71121,4.54453 4.70609,4.52388 4.70091,4.50354 4.69565,4.48353 4.69031,4.46388 4.68489,4.44462 4.67939,4.42577 4.6738,4.40735 4.66812,4.38939 4.66234,4.3719 4.65646,4.35493 4.65048,4.33848 4.64439,4.32259 4.63818,4.30729 4.63186,4.29258 4.62541,4.2785 4.61885,4.26508 4.61215,4.25233 4.60532,4.24028 4.59835,4.22896 4.59124,4.21839 4.58399,4.20859 4.57659,4.19959 "/>
     <polygon id="_430492680" class="fil1" points="4.849,4.7699 8.63527,8.55617 8.63702,8.56491 8.63884,8.57342 8.64072,8.58171 8.64265,8.58979 8.64464,8.59766 8.64669,8.60531 8.64878,8.61276 8.65091,8.62001 8.6531,8.62706 8.65532,8.6339 8.65759,8.64056 8.65989,8.64702 8.66222,8.65328 8.66459,8.65937 8.66699,8.66526 8.66941,8.67098 8.67185,8.67652 8.67432,8.68188 8.67681,8.68707 8.67931,8.69209 8.68182,8.69694 8.68435,8.70163 8.68688,8.70616 8.68942,8.71053 8.69196,8.71474 8.6945,8.7188 8.69704,8.72271 8.69957,8.72647 8.70209,8.73009 8.70461,8.73356 8.70711,8.7369 8.70959,8.7401 4.92332,4.95383 4.92084,4.95063 4.91834,4.94729 4.91582,4.94381 4.9133,4.9402 4.91077,4.93644 4.90823,4.93253 4.90569,4.92847 4.90315,4.92426 4.90061,4.91989 4.89808,4.91536 4.89556,4.91067 4.89304,4.90582 4.89054,4.9008 4.88806,4.89561 4.88559,4.89025 4.88314,4.88471 4.88072,4.87899 4.87832,4.87309 4.87596,4.86701 4.87362,4.86074 4.87132,4.85428 4.86906,4.84763 4.86683,4.84078 4.86465,4.83374 4.86251,4.82649 4.86042,4.81904 4.85837,4.81139 4.85639,4.80352 4.85445,4.79544 4.85257,4.78715 4.85076,4.77863 "/>
     <polygon id="_430492704" class="fil1" points="4.84111,4.72951 8.62738,8.51578 8.63527,8.55617 4.849,4.7699 "/>
     <polygon id="_430492872" class="fil1" points="5.16144,5.07106 8.9477,8.85733 8.94645,8.86739 8.94423,8.87709 8.9411,8.88637 8.93711,8.89519 8.93232,8.90352 8.92678,8.91129 8.92053,8.91846 8.91364,8.925 8.90615,8.93085 8.89812,8.93596 8.88959,8.9403 8.88063,8.94381 8.87129,8.94646 8.86161,8.94819 8.85165,8.94894 8.84146,8.9487 5.05519,5.16243 5.06538,5.16267 5.07534,5.16191 5.08502,5.16019 5.09437,5.15754 5.10333,5.15403 5.11185,5.14969 5.11988,5.14458 5.12737,5.13873 5.13426,5.13219 5.14051,5.12502 5.14605,5.11724 5.15084,5.10892 5.15483,5.1001 5.15796,5.09081 5.16018,5.08112 "/>
     <polygon id="_430491720" class="fil1" points="5.13105,4.99209 8.91731,8.77836 8.92386,8.78527 8.92972,8.79276 8.93484,8.8008 8.93919,8.80933 8.94272,8.81828 8.94538,8.82761 8.94713,8.83727 8.94792,8.84719 8.9477,8.85733 5.16144,5.07106 5.16165,5.06092 5.16086,5.051 5.15911,5.04134 5.15645,5.03201 5.15293,5.02306 5.14857,5.01453 5.14345,5.00649 5.13759,4.999 "/>
     <polygon id="_430491648" class="fil1" points="4.05427,3.0635 7.84054,6.84977 7.83822,6.85898 7.83589,6.86803 7.83355,6.87691 7.8312,6.88561 7.82884,6.89413 7.82649,6.90246 7.82414,6.9106 7.82179,6.91855 7.81945,6.9263 7.81713,6.93385 7.81481,6.9412 7.81252,6.94833 7.81024,6.95526 7.80798,6.96196 7.80575,6.96844 7.80355,6.97469 7.80138,6.98072 7.79925,6.9865 7.79715,6.99206 7.79509,6.99736 7.79307,7.00242 7.79111,7.00723 7.78919,7.01178 7.78732,7.01608 7.78551,7.02011 7.78376,7.02387 7.78206,7.02737 7.78043,7.03058 7.77887,7.03352 7.77737,7.03617 7.77595,7.03853 7.77461,7.0406 3.98834,3.25433 3.98969,3.25226 3.99111,3.2499 3.9926,3.24724 3.99416,3.24431 3.99579,3.24109 3.99749,3.2376 3.99924,3.23384 4.00106,3.22981 4.00292,3.22551 4.00484,3.22096 4.00681,3.21615 4.00882,3.21109 4.01088,3.20578 4.01298,3.20023 4.01511,3.19444 4.01728,3.18842 4.01948,3.18217 4.02171,3.17569 4.02397,3.16898 4.02625,3.16206 4.02854,3.15493 4.03086,3.14758 4.03319,3.14003 4.03552,3.13228 4.03787,3.12433 4.04022,3.11619 4.04257,3.10785 4.04493,3.09933 4.04728,3.09064 4.04962,3.08176 4.05195,3.07271 "/>
    </g>
    <path id="_435556408" class="fil1" d="M2.56019 2.06226l0 0zm0.859276 -0.515594l0.950272 0.208374 -0.34272 0.0751535 0 0.253811c-0.00150787,0.000511811 -0.00301575,0.00101969 -0.00452362,0.0015315 0.118705,0.162138 0.114409,0.464098 0.0870236,0.673185 0.0232008,-0.0163071 0.0476496,-0.0225157 0.0695945,-0.0152795 0.0524843,0.0172638 0.0707913,0.10485 0.0409134,0.195594 -0.029878,0.0907677 -0.0966535,0.150319 -0.149142,0.13302 -0.00598819,-0.00197244 -0.0115315,-0.00485827 -0.0166102,-0.00855906 -0.0246654,0.0992008 -0.0519921,0.170319 -0.0659331,0.190835 -0.0384213,0.0565906 -0.153524,0.163004 -0.277083,0.249972l0 0.122126 2.75591e-005 0.0905276c0.602594,0.265098 0.777827,0.403209 0.850039,0.46713 0.0831181,0.0735669 0.138717,0.295906 0.188866,0.533961 0.0311457,0.00409843 0.0492126,0.00633858 0.0500866,0.00644882l0.0408386 0.00501181 0.00788976 0.0403937c0.0183583,0.0943346 0.0479055,0.150512 0.0743189,0.183925l0.0126929 0.000956693 0.133862 0.0100433c0.0545787,0.00403937 0.0954646,0.0516614 0.0915591,0.106236 -0.00404724,0.0545433 -0.0513819,0.0954449 -0.106248,0.0913661l-1.21852 -0.0912087c-0.0553701,0.0979606 -0.180807,0.20878 -0.416386,0.20878 -0.00237402,0 -0.00460236,-0.000440945 -0.00692126,-0.000653543 -0.00232283,0.000212598 -0.00452362,0.000653543 -0.00689764,0.000653543 -0.235551,0 -0.361024,-0.110819 -0.416394,-0.20878l-1.21858 0.0912087c-0.0545394,0.00397244 -0.102177,-0.0368228 -0.106252,-0.0913661 -0.00407874,-0.0545748 0.0368858,-0.102197 0.0914488,-0.106236l0.161303 -0.0120591 0.00126772 -0.00163386c0.0258425,-0.0337402 0.0541811,-0.0893819 0.0721772,-0.181232l0.00776772 -0.0402638 0.0408504 -0.00509843c0.00073622,-8.26772e-005 0.0135354,-0.00165748 0.0359843,-0.00457087 0.050248,-0.23878 0.105913,-0.462118 0.189276,-0.535882 0.010315,-0.00912992 0.0228661,-0.0198465 0.038563,-0.0322874 0.0776693,-0.0615551 0.232331,-0.16524 0.57385,-0.327146 0.0706181,-0.0334803 0.149228,-0.0694488 0.236795,-0.108047 0.000287402,-0.000122047 0.000570866,-0.000248031 0.000858268,-0.000374016l0 -0.0898031 0 -0.122118c-0.123571,-0.0869724 -0.238685,-0.19339 -0.27711,-0.24998 -0.0140118,-0.0206299 -0.0415669,-0.092437 -0.0663386,-0.192516 -0.00567323,0.00452756 -0.0119606,0.008 -0.0188386,0.0102677 -0.0524606,0.0172717 -0.119232,-0.0422795 -0.149114,-0.133047 -0.0299094,-0.0907441 -0.0115669,-0.178331 0.0409173,-0.195594 0.0253937,-0.00837402 0.0541417,0.00125591 0.080437,0.0237205 -0.00102362,-0.0151378 -0.00183465,-0.0304016 -0.00239764,-0.0457559 -0.0226063,-0.225193 -0.0133937,-0.462193 0.121846,-0.637024 -0.000307087,-0.000125984 -0.000610236,-0.000251969 -0.000917323,-0.000377953l0 -0.246803 -0.197118 -0.0432244c-0.105425,0.0492874 -0.0969961,0.147315 -0.0865551,0.268283 0.0017126,0.0198622 0.00347638,0.040311 0.00483465,0.0614882l0.000318898 0 0.0704291 0.177295 -0.0180354 0 -0.0326181 -0.0545236 -0.00922441 0.0545236 -0.0151299 0 -0.0134173 -0.0540945 -0.0163543 0.0540945 -0.0176811 0 -0.0050315 -0.0540945 -0.0348071 0.0540945 -0.0120118 0 0.0639331 -0.176276c-0.00133858,-0.0200472 -0.00304724,-0.0398465 -0.00470866,-0.0591024l0 -7.48031e-005c-0.0104094,-0.120705 -0.0190748,-0.221181 0.0686181,-0.284209l-0.120122 -0.0263425 0.950276 -0.208374z"/>
   </g>
  </g>
  <path class="fil2" d="M3.41333 0c1.88513,0 3.41333,1.5282 3.41333,3.41333 0,1.88513 -1.5282,3.41333 -3.41333,3.41333 -1.88513,0 -3.41333,-1.5282 -3.41333,-3.41333 0,-1.88513 1.5282,-3.41333 3.41333,-3.41333z"/>
  <path class="fil3" d="M2.6449 2.74344c0.0524606,-0.0172992 0.119236,0.042248 0.149114,0.13302 0.029878,0.0907441 0.0115669,0.178323 -0.0409173,0.195622 -0.0524606,0.0172717 -0.119236,-0.0422795 -0.149114,-0.133047 -0.0299055,-0.0907441 -0.0115669,-0.178331 0.0409173,-0.195594z"/>
  <path class="fil3" d="M4.17911 2.74344c-0.0524882,-0.0172992 -0.119264,0.0422756 -0.149142,0.13302 -0.029878,0.0907441 -0.0115669,0.178323 0.0409094,0.195594 0.0524882,0.0172992 0.119264,-0.042252 0.149142,-0.13302 0.0298819,-0.0907441 0.0115709,-0.178331 -0.0409094,-0.195594z"/>
  <path class="fil4" d="M3.13578 3.70727c-0.613626,0.269 -0.797701,0.412409 -0.870457,0.476815 -0.11213,0.0992205 -0.174146,0.469059 -0.24028,0.783083l1.38828 0 1.38828 0c-0.0661339,-0.314024 -0.128177,-0.683862 -0.24028,-0.783083 -0.0727559,-0.0644055 -0.250087,-0.204114 -0.863713,-0.473146l-0.561835 -0.00366929z"/>
  <path class="fil5" d="M3.13575 3.70727c-0.613598,0.269 -0.797673,0.412409 -0.870429,0.476815 -0.11213,0.0992205 -0.174146,0.469059 -0.24028,0.783083l1.38828 0 1.38825 0c-0.066126,-0.314024 -0.12815,-0.683862 -0.240272,-0.783083 -0.0727362,-0.0644055 -0.250067,-0.204114 -0.863693,-0.473146l-0.561862 -0.00366929z"/>
  <path class="fil6" d="M3.71126 3.17104l0 0.680169c-0.163874,0.200705 -0.432024,0.193752 -0.59587,0l0 -0.680169c0,-0.367276 0.59587,-0.367276 0.59587,0z"/>
  <path class="fil7" d="M3.71126 3.17104l0 0.455386c-0.112748,0.082185 -0.221413,0.128224 -0.297933,0.128224 -0.0765236,0 -0.185209,-0.0460394 -0.297937,-0.128224l0 -0.455386c0,-0.367276 0.59587,-0.367276 0.59587,0z"/>
  <path class="fil6" d="M3.41332 1.94989c-0.999976,0 -0.640366,1.20827 -0.575043,1.30444 0.0720236,0.106071 0.41348,0.387201 0.575043,0.387201 0.161559,0 0.502996,-0.28113 0.575016,-0.387201 0.0653465,-0.0961732 0.424957,-1.30444 -0.575016,-1.30444z"/>
  <path class="fil8" d="M2.95625 2.35425c-0.0580039,0.316894 -0.203264,0.287315 -0.191744,0.659181 -0.0466614,-0.289831 -0.11635,-0.675531 0.0807047,-0.929591 0.157453,-0.203008 0.678949,-0.34822 1.01664,-0.104642 0.37298,0.0796811 0.256346,0.839055 0.206331,0.982587 -0.0349094,-0.23248 -0.113114,-0.329323 -0.211846,-0.602657 -0.133949,0.0960512 -0.728386,0.11748 -0.900087,-0.00487795z"/>
  <path class="fil9" d="M2.5908 4.96717l0.0475394 0c-0.00212205,-0.211413 -0.00212205,-0.363783 -0.00212205,-0.363783 0,0 -0.0210591,0.15835 -0.0454173,0.363783z"/>
  <path class="fil9" d="M4.23584 4.96717l-0.0475669 0c0.00212598,-0.211413 0.00212598,-0.363783 0.00212598,-0.363783 0,0 0.0210591,0.15835 0.0454409,0.363783z"/>
  <path class="fil10" d="M3.11046 3.21472c0.201118,0.0719764 0.434563,0.0603031 0.605709,0 -0.0558465,0.257307 -0.498913,0.263555 -0.605709,0z"/>
  <path class="fil11" d="M3.11539 3.85121l0.129425 1.11596 0.168512 0 0.167244 0 0.130689 -1.11593 1.9685e-005 -2.3622e-005 -1.9685e-005 -0.0403543 0 -0.0905157c-0.0473622,0.0345197 -0.094,0.0626614 -0.137839,0.0836969 -0.0605276,0.0290394 -0.115717,0.0445236 -0.160094,0.0445236 -0.0454488,0 -0.102236,-0.0162362 -0.16448,-0.0466417 -0.042563,-0.0207874 -0.0876732,-0.0482047 -0.133457,-0.0815787l0 0.0898031 0 0.0410669z"/>
  <path class="fil5" d="M3.45278 3.97804l0.0929331 0.989126 1.25586 0c-0.066122,-0.314028 -0.12815,-0.683862 -0.240272,-0.783083 -0.072185,-0.0639213 -0.247488,-0.202039 -0.85002,-0.46713l-0.258504 0.261087z"/>
  <path class="fil5" d="M3.11453 3.71661c-0.596598,0.26298 -0.777303,0.403827 -0.849209,0.46748 -0.11213,0.0992205 -0.174146,0.469055 -0.24028,0.783083l1.27399 0 0.0467795 -0.98622 -0.230421 -0.256008c-0.000767717,-0.00275197 -0.00104724,-0.00557087 -0.000858268,-0.00833465z"/>
  <path class="fil5" d="M2.84387 1.77156c0.394382,0.149657 0.78876,0.134339 1.18315,0l0 0.312449c-0.419126,0.142157 -0.815654,0.152157 -1.18315,0l0 -0.312449z"/>
  <path class="fil12" d="M2.5776 4.71089c0.000259843,0.00451181 0.00080315,0.00894882 0.00115354,0.0134449l0.0889843 -0.0134449 -0.0901378 0z"/>
  <rect class="fil13" transform="matrix(1.2586 -0.275987 1.2586 0.275987 2.46919 1.75504)" width="0.755024" height="0.755024"/>
  <path class="fil14" d="M2.66128 1.78778c-0.120693,0.046937 -0.111984,0.148213 -0.101094,0.274484l7.87402e-006 0c0.00337402,0.0391181 0.00694488,0.0805079 0.00721654,0.125252l-0.0395 0.000149606c-0.000251969,-0.0412402 -0.00383465,-0.082752 -0.00722047,-0.121996l0 -7.48031e-005c-0.0122953,-0.142579 -0.0221575,-0.256929 0.126343,-0.314681l0.014248 0.0368661z"/>
  <polygon class="fil13" points="2.52578,2.12375 2.56535,2.12375 2.63578,2.30104 2.61774,2.30104 2.58513,2.24652 2.5759,2.30104 2.56077,2.30104 2.54736,2.24695 2.531,2.30104 2.51332,2.30104 2.50829,2.24695 2.47348,2.30104 2.46147,2.30104 "/>
  <path class="fil12" d="M5.06988 4.96483l-0.133862 -0.0100433 8.26772e-005 0.000582677 -1.18741 -0.0848307c-0.00252756,0.000590551 -0.00501969,0.00127559 -0.0074685,0.00205512 -0.0327992,0.128335 -0.171335,0.224697 -0.337287,0.224697 -0.163602,0 -0.300579,-0.0936496 -0.335846,-0.219268l-1.14882 0.0731142 -0.00126772 0.00163386 -0.161303 0.0120591c-0.054563,0.00403937 -0.0955276,0.0516614 -0.0914488,0.106236 0.0040748,0.0545433 0.0517126,0.0953386 0.106252,0.0913661l1.21858 -0.0912087c0.0553701,0.0979606 0.180843,0.20878 0.416394,0.20878 0.00237402,0 0.0045748,-0.000440945 0.00689764,-0.000653543 0.0023189,0.000212598 0.00454724,0.000653543 0.00692126,0.000653543 0.235579,0 0.361016,-0.110819 0.416386,-0.20878l1.21852 0.0912087c0.0548661,0.00407874 0.102201,-0.0368228 0.106248,-0.0913661 0.00390551,-0.0545748 -0.0369803,-0.102197 -0.0915591,-0.106236z"/>
  <path class="fil15" d="M3.06808 4.87802c0.00902756,0.0321575 0.0247205,0.0622205 0.0458189,0.0891496 0.0613189,0.0782795 0.168307,0.130118 0.290028,0.130118 0.121724,0 0.228693,-0.0518425 0.290012,-0.130118 0.0222795,-0.0284409 0.0385315,-0.060374 0.0472756,-0.0945787 0.00244882,-0.000779528 0.00494094,-0.00146457 0.0074685,-0.00205512 -0.0290079,-0.0020748 0.818059,0.0584449 1.18741,0.0848307l-8.26772e-005 -0.000582677 -0.0126929 -0.000956693c-0.0264134,-0.0334134 -0.0559606,-0.0895906 -0.0743189,-0.183925l-0.00788976 -0.0403937 -0.0408386 -0.00501181c-0.00443701,-0.000559055 -0.450224,-0.055811 -0.802555,-0.130299 -0.295232,-0.0625433 -0.467776,0.0514685 -0.528236,0.103461 -0.0188543,0.0161457 -0.0352008,0.0333425 -0.0492992,0.0510039 -0.0140984,-0.0176614 -0.0304882,-0.0347283 -0.0492953,-0.050874 -0.0604882,-0.0519961 -0.233051,-0.165902 -0.528283,-0.103543 -0.352264,0.0745551 -0.798098,0.129807 -0.802547,0.130295l-0.0408504 0.00509843 -0.00776772 0.0402638c-0.0179961,0.0918504 -0.0463346,0.147492 -0.0721772,0.181232l1.14882 -0.0731142z"/>
 </g>
</svg>
