<?xml version="1.0" encoding="UTF-8"?>
<!DOCTYPE svg PUBLIC "-//W3C//DTD SVG 1.1//EN" "http://www.w3.org/Graphics/SVG/1.1/DTD/svg11.dtd">
<!-- Creator: CorelDRAW -->
<svg xmlns="http://www.w3.org/2000/svg" xml:space="preserve" width="2048px" height="2048px" style="shape-rendering:geometricPrecision; text-rendering:geometricPrecision; image-rendering:optimizeQuality; fill-rule:evenodd; clip-rule:evenodd"
viewBox="0 0 2048 2048"
 xmlns:xlink="http://www.w3.org/1999/xlink">
 <defs>
  <style type="text/css">
   <![CDATA[
    .fil2 {fill:none}
    .fil1 {fill:#424242}
    .fil0 {fill:#424242;fill-rule:nonzero}
   ]]>
  </style>
 </defs>
 <g id="Layer_x0020_1">
  <metadata id="CorelCorpID_0Corel-Layer"/>
  <g id="_293110832">
   <path id="_293111072" className="fil0" d="M863.686 540.411l307.387 0c21.9177,0 41.8288,8.95276 56.2512,23.3764 14.4225,14.4213 23.3752,34.3323 23.3752,56.2489l0 15.3803 -466.639 0 0 -15.3803c0,-21.9154 8.95276,-41.8264 23.3752,-56.25 14.4213,-14.4225 34.3335,-23.3752 56.25,-23.3752zm153.692 -278.105c36.287,0 69.1406,14.7106 92.9221,38.4922 23.7803,23.7792 38.4898,56.6327 38.4898,92.9186 0,36.2835 -14.7106,69.1382 -38.491,92.9198 -23.7815,23.7815 -56.6339,38.491 -92.9209,38.491 -36.2835,0 -69.1359,-14.7106 -92.9186,-38.491 -23.7803,-23.7827 -38.4898,-56.6363 -38.4898,-92.9198 0,-36.2859 14.7095,-69.1394 38.4898,-92.9186 23.7827,-23.7815 56.6351,-38.4922 92.9186,-38.4922z"/>
   <path id="_293110856" className="fil1" d="M740.775 656.184l553.212 0c13.5425,0 24.6225,12.8599 24.6225,28.5733l0 308.599c0,15.7122 -11.0811,28.5721 -24.6225,28.5721l-553.212 0c-13.5413,0 -24.6225,-12.8575 -24.6225,-28.5721l0 -308.599c0,-15.7158 11.0799,-28.5733 24.6225,-28.5733z"/>
  </g>
  <g id="_293109560">
   <g>
    <path id="_293110256" className="fil0" d="M434.73 1269.89l333.299 0c23.7638,0 45.3544,9.70749 60.9922,25.3465 15.639,15.6366 25.3453,37.226 25.3453,60.9898l0 16.6772 -505.973 0 0 -16.6772c0,-23.7626 9.70631,-45.352 25.3453,-60.991 15.6366,-15.6378 37.2284,-25.3453 60.991,-25.3453zm166.649 -301.547c39.3449,0 74.967,15.9496 100.754,41.7366 25.7847,25.7835 41.7343,61.4067 41.7343,100.75 0,39.3425 -15.9508,74.967 -41.7355,100.753 -25.787,25.7858 -61.4079,41.7355 -100.753,41.7355 -39.3437,0 -74.9646,-15.9508 -100.752,-41.7355 -25.7847,-25.787 -41.7343,-61.4103 -41.7343,-100.753 0,-39.3437 15.9496,-74.967 41.7343,-100.75 25.787,-25.787 61.4079,-41.7366 100.752,-41.7366z"/>
    <path id="_293109728" className="fil1" d="M301.458 1395.43l599.846 0c14.6835,0 26.6977,13.9429 26.6977,30.9803l0 334.611c0,17.0386 -12.0154,30.9815 -26.6977,30.9815l-599.846 0c-14.6823,0 -26.6977,-13.9406 -26.6977,-30.9815l0 -334.611c0,-17.0398 12.0142,-30.9803 26.6977,-30.9803z"/>
   </g>
   <g>
    <path id="_293110136" className="fil0" d="M1266.73 1269.89l333.299 0c23.7638,0 45.3544,9.70749 60.9922,25.3465 15.639,15.6366 25.3453,37.226 25.3453,60.9898l0 16.6772 -505.973 0 0 -16.6772c0,-23.7626 9.70631,-45.352 25.3453,-60.991 15.6366,-15.6378 37.2284,-25.3453 60.991,-25.3453zm166.649 -301.547c39.3449,0 74.967,15.9496 100.754,41.7366 25.7847,25.7835 41.7343,61.4067 41.7343,100.75 0,39.3425 -15.9508,74.967 -41.7355,100.753 -25.787,25.7858 -61.4079,41.7355 -100.753,41.7355 -39.3437,0 -74.9646,-15.9508 -100.752,-41.7355 -25.7847,-25.787 -41.7343,-61.4103 -41.7343,-100.753 0,-39.3437 15.9496,-74.967 41.7343,-100.75 25.787,-25.787 61.4079,-41.7366 100.752,-41.7366z"/>
    <path id="_293109752" className="fil1" d="M1133.46 1395.43l599.846 0c14.6835,0 26.6977,13.9429 26.6977,30.9803l0 334.611c0,17.0386 -12.0154,30.9815 -26.6977,30.9815l-599.846 0c-14.6823,0 -26.6977,-13.9406 -26.6977,-30.9815l0 -334.611c0,-17.0398 12.0142,-30.9803 26.6977,-30.9803z"/>
   </g>
  </g>
 </g>
 <rect className="fil2" width="2048" height="2048"/>
</svg>
